<?xml version="1.0" encoding="UTF-8" standalone="no"?>
<!DOCTYPE svg PUBLIC "-//W3C//DTD SVG 1.1//EN" "http://www.w3.org/Graphics/SVG/1.1/DTD/svg11.dtd">
<svg width="100%" height="100%" viewBox="0 0 100 100" version="1.1" xmlns="http://www.w3.org/2000/svg" xmlns:xlink="http://www.w3.org/1999/xlink" xml:space="preserve" xmlns:serif="http://www.serif.com/" style="fill-rule:evenodd;clip-rule:evenodd;stroke-linejoin:round;stroke-miterlimit:2;">
    <g transform="matrix(0.0754386,0,0,0.0754386,4.73687,11.9035)">
        <g id="kiko-entire-housing">
            <path d="M903,701C909,707 912.333,714.667 913,724C913,732.667 909.833,740 903.5,746C897.167,752 889.667,755 881,755L319,755C310.333,755 303,752 297,746C291,740 288,732.667 288,724C287.333,715.333 290,707.833 296,701.5C302,695.167 309.667,692 319,692L350,692L350,397L336,406C331.333,410 325.667,412 319,412C308.333,412 299.667,407 293,397C289,391.667 287,386 287,380C287,368.667 291.667,360 301,354L583,167C588.333,163 594,161 600,161C606,161 611.667,163 617,167L671,202C677.667,195.333 685.333,192 694,192L787,192C796.333,192 804,195 810,201C816,207 819,214.667 819,224L819,301L899,354C908.333,360 913,368.667 913,380C913,386 911,391.667 907,397C900.333,407 891.667,412 881,412C875,412 869.333,410 864,406L850,397L850,692L881,693C889.667,692.333 897,695 903,701ZM506,474C506,464.667 509.167,457 515.5,451C521.833,445 529.333,442 538,442L662,442C671.333,442 679,445 685,451C691,457 694,464.667 694,474L694,692L788,692L788,355L770,343C760.667,337.667 756,329 756,317L756,255L725,255C725,267.667 719.333,277 708,283C704,285 699.333,286 694,286C688.667,286 682.667,284.333 676,281L600,230L413,355L413,692L506,692L506,474ZM631,505L569,505L569,692L631,692L631,505ZM247,527C253,521 256,513.667 256,505C256,496.333 253,489 247,483C241,477 233.667,474 225,474L131,474C122.333,474 115,477 109,483C103,489 100,496.333 100,505C100,513.667 103,521 109,527C115,533 122.333,536 131,536L225,536C233.667,536 241,533 247,527ZM275,186.5C280.333,182.167 284,176.667 286,170C286.667,168 287,165 287,161C287,150.333 282.667,141.667 274,135L195,83C189.667,79.667 184,78 178,78C166.667,78 158,82.667 152,92C148.667,97.333 147,103 147,109C147,120.333 151.667,129 161,135L239,187C242.333,189.667 248,191.667 256,193C263.333,193 269.667,190.833 275,186.5ZM1091,527C1097,521 1100,513.667 1100,505C1100,496.333 1097,489 1091,483C1085,477 1077.67,474 1069,474L975,474C966.333,474 959,477 953,483C947,489 944,496.333 944,505C944,513.667 947,521 953,527C959,533 966.333,536 975,536L1069,536C1077.67,536 1085,533 1091,527ZM961,187L1039,135C1048.33,129 1053,120.333 1053,109C1053,103 1051.33,97.333 1048,92C1042,82.667 1033.33,78 1022,78C1016,78 1010.33,79.667 1005,83L926,135C917.333,141.667 913,150.333 913,161C913,165 913.333,168 914,170C916,177.333 919.833,183 925.5,187C931.167,191 937.333,192.667 944,192C951.333,192 957,190.333 961,187ZM195,927L274,875C283.333,869 288,860.333 288,849C288,843 286,837 282,831C276,821.667 267.667,817 257,817C250.333,817 244.333,819 239,823L161,875C156.333,877.667 152.833,881.333 150.5,886C148.167,890.667 147,895.667 147,901C147,905 147.333,908 148,910C150,916.667 153.833,922 159.5,926C165.167,930 171.333,932 178,932C184,932 189.667,930.333 195,927ZM1040.5,926C1046.17,922 1050,916.667 1052,910C1052.67,908 1053,905 1053,901C1053,895.667 1051.83,890.667 1049.5,886C1047.17,881.333 1043.67,877.667 1039,875L961,823C956.333,819 950.333,817 943,817C932.333,817 924,821.667 918,831C914,837 912,843 912,849C912,860.333 916.667,869 926,875L1005,927C1010.33,930.333 1016,932 1022,932C1028.67,932 1034.83,930 1040.5,926Z" style="fill:rgb(234,179,8);fill-rule:nonzero;"/>
        </g>
    </g>
</svg>
