<?xml version="1.0" encoding="UTF-8" standalone="no"?>
<!DOCTYPE svg PUBLIC "-//W3C//DTD SVG 1.1//EN" "http://www.w3.org/Graphics/SVG/1.1/DTD/svg11.dtd">
<svg width="100%" height="100%" viewBox="0 0 100 100" version="1.1" xmlns="http://www.w3.org/2000/svg" xmlns:xlink="http://www.w3.org/1999/xlink" xml:space="preserve" xmlns:serif="http://www.serif.com/" style="fill-rule:evenodd;clip-rule:evenodd;stroke-linejoin:round;stroke-miterlimit:2;">
    <g transform="matrix(0.0655461,0,0,0.0655461,10.6723,16.8992)">
        <g id="kiko-city-view">
            <path d="M1091,951C1097,957 1100,964.667 1100,974C1100,982.667 1097,990 1091,996C1085,1002 1077.67,1005 1069,1005L131,1005C122.333,1005 115,1002 109,996C103,990 100,982.667 100,974C100,965.333 103,957.833 109,951.5C115,945.167 122.333,942 131,942L413,942L413,849L319,849C310.333,849 303,846 297,840C291,834 288,826.333 288,817L288,692L225,692L225,849C225,857.667 222,865 216,871C210,877 202.667,880 194,880L131,880C122.333,880 115,877 109,871C103,865 100,857.667 100,849C100,840.333 103,832.833 109,826.5C115,820.167 122.333,817 131,817L163,817L163,661C162.333,652.333 165.167,645 171.5,639C177.833,633 185.333,630 194,630L319,630C327.667,630 335,633 341,639C347,645 350,652.333 350,661L350,786L413,786L413,349C404.333,349 396.833,346 390.5,340C384.167,334 381,326.667 381,318C381,308.667 384.167,301 390.5,295C396.833,289 404.333,286 413,286L475,286L475,224C466.333,224 459,221 453,215C447,209 444,201.667 444,193C444,184.333 447,176.833 453,170.5C459,164.167 466.333,161 475,161L569,161L569,36C569,27.333 572,20 578,14C584,8 591.333,5 600,5C608.667,5 616,8 622,14C628,20 631,27.333 631,36L631,161L725,161C733.667,161 741,164 747,170C753,176 756,183.333 756,192C756,200.667 753,208.167 747,214.5C741,220.833 733.667,224 725,224L725,286L787,286C795.667,286 803.167,289 809.5,295C815.833,301 819,308.333 819,317C819,325.667 816,333.167 810,339.5C804,345.833 796.667,349 788,349L788,724L850,724L850,536C850,527.333 853,520 859,514C865,508 872.333,505 881,505L1006,505C1014.67,505 1022.17,508 1028.5,514C1034.83,520 1038,527.333 1038,536L1038,817L1069,818C1077.67,817.333 1085,820 1091,826C1097,832 1100,839.667 1100,849C1100,857.667 1097,865 1091,871C1085,877 1077.67,880 1069,880L1006,880C997.333,880 990,877 984,871C978,865 975,857.667 975,849L975,567L913,567L913,755C913,763.667 909.833,771 903.5,777C897.167,783 889.667,786 881,786L788,786L788,942L1069,943C1077.67,942.333 1085,945 1091,951ZM663,286L663,224L538,224L538,286L663,286ZM725,349L475,349L475,942L725,942L725,349ZM653,420C659,426 662.333,433.333 663,442C663,450.667 660,458.167 654,464.5C648,470.833 640.333,474 631,474L569,474C560.333,474 553,471 547,465C541,459 538,451.667 538,443C537.333,434.333 540,426.833 546,420.5C552,414.167 559.667,411 569,411L631,411C639.667,411 647,414 653,420ZM653,545C659,551 662.333,558.333 663,567C663,575.667 660,583.167 654,589.5C648,595.833 640.333,599 631,599L569,599C560.333,599 553,596 547,590C541,584 538,576.667 538,568C537.333,559.333 540,551.833 546,545.5C552,539.167 559.667,536 569,536L631,536C639.667,536 647,539 653,545ZM653,670C659,676 662.333,683.333 663,692C663,700.667 660,708.167 654,714.5C648,720.833 640.333,724 631,724L569,724C560.333,724 553,721 547,715C541,709 538,701.667 538,693C537.333,684.333 540,676.833 546,670.5C552,664.167 559.667,661 569,661L631,661C639.667,661 647,664 653,670ZM653,795C659,801 662.333,808.333 663,817C663,825.667 660,833.167 654,839.5C648,845.833 640.333,849 631,849L569,849C560.333,849 553,846 547,840C541,834 538,826.667 538,818C537.333,809.333 540,801.833 546,795.5C552,789.167 559.667,786 569,786L631,786C639.667,786 647,789 653,795Z" style="fill:rgb(234,179,8);fill-opacity:0.8;fill-rule:nonzero;"/>
        </g>
    </g>
</svg>
