<?xml version="1.0" encoding="UTF-8" standalone="no"?>
<!DOCTYPE svg PUBLIC "-//W3C//DTD SVG 1.1//EN" "http://www.w3.org/Graphics/SVG/1.1/DTD/svg11.dtd">
<svg width="100%" height="100%" viewBox="0 0 500 500" version="1.1" xmlns="http://www.w3.org/2000/svg" xmlns:xlink="http://www.w3.org/1999/xlink" xml:space="preserve" xmlns:serif="http://www.serif.com/" style="fill-rule:evenodd;clip-rule:evenodd;stroke-linecap:round;stroke-linejoin:round;stroke-miterlimit:1.5;">
    <g>
        <path d="M305.737,169.268C305.737,169.268 313.486,185.804 299.623,197.643C299.623,197.643 307.385,200.133 313.878,181.275C313.878,181.275 321.419,185.899 302.942,203.756C302.942,203.756 310.205,204.429 315.854,201.133C315.854,201.133 307.695,228.951 287.266,208.38C279.283,206.348 309.162,188.119 295.407,181.409C295.407,181.409 293.895,176.512 280.285,184.183C280.285,184.183 256.872,175.419 246.085,179.026C246.085,179.026 245.503,193.044 270.483,202.799C270.483,202.799 283.949,212.671 250,215.443C250,215.443 214.314,214.721 212.676,187.275C212.676,187.275 221.795,206.03 239.787,208.565C239.787,208.565 212.085,188.047 216.494,173.048C216.494,173.048 195.777,180.465 210.038,207.508C210.038,207.508 206.341,209.732 194.861,202.005C194.861,202.005 192.129,206.42 191.254,219.542C191.254,219.542 174.559,245.632 195.467,267.91C195.467,267.91 190.318,234.455 208.037,223.586C208.037,223.586 213.626,220.983 225.19,229.223C225.19,229.223 237.477,266.679 246.9,272.854C246.9,272.854 245.779,245.376 250,242.309C250,242.309 253.054,242.967 258.732,250C258.732,250 271.987,249.696 272.566,225.465C272.566,225.465 274.131,242.236 270.403,245.429C270.403,245.429 280.833,246.444 282.973,223.273C282.973,223.273 281.862,240.819 279.363,243.265C279.363,243.265 290.433,237.65 291.088,227.528C291.088,227.528 288.746,242.862 285.474,244.691C285.474,244.691 291.076,245.127 296.99,236.442C296.99,236.442 288.705,255.814 287.556,266.613C287.556,266.613 299.958,263.175 311.297,225.331C311.297,225.331 332.926,219.933 324.708,187.778C324.708,187.778 324.176,172.866 321.465,166.914C321.465,166.914 322.23,165.474 317.015,172.679C317.015,172.679 307.438,167.547 305.737,169.268Z" style="fill:rgb(234,179,8);stroke:rgb(234,179,8);stroke-width:1px;"/>
        <path d="M252.208,136.464C252.208,136.464 249.765,117.972 241.865,116.764C241.865,116.764 249.763,109.738 264.83,140.026C264.83,140.026 271.265,147.589 284.108,146.655C284.108,146.655 267.781,150.203 259.357,148.776C259.357,148.776 266.287,152.652 272.535,151.757C272.535,151.757 272.368,154.783 271.977,155.008C271.977,155.008 253.553,154.316 252.586,148.776C252.586,148.776 252.762,147.33 254.89,146.782C254.89,146.782 234.027,136.042 234.339,134.24C234.339,134.24 239,132.348 252.208,136.464Z" style="fill:rgb(234,179,8);stroke:rgb(234,179,8);stroke-width:1px;"/>
        <path d="M241.318,146.178C241.318,146.178 242.822,155.793 240.496,155.008C239.506,155.522 218.198,155.902 207.783,126.163C207.783,126.163 181.617,136.882 179.15,163.288C179.15,163.288 190.75,138.64 208.43,144.657C208.43,144.657 190.663,148.822 186.906,158.656C186.906,158.656 196.76,154.42 202.33,157.277C202.33,157.277 205.513,164.427 207.968,165.552C207.968,165.552 208.539,166.825 205.579,166.751C205.579,166.751 209.701,171.296 228.784,168.711C228.784,168.711 228.062,160.323 253.063,163.288C253.063,163.288 264.752,164.996 275.893,171.638C275.893,171.638 285.092,167.412 277.847,155.008C277.847,155.008 278.284,161.811 273.902,163.288C273.902,163.288 260.661,156.552 252.117,157.957C252.117,157.957 244.467,145.428 241.318,146.178Z" style="fill:rgb(234,179,8);stroke:rgb(234,179,8);stroke-width:1px;"/>
        <path d="M225.711,160.871C225.711,160.871 218.036,154.479 212.379,155.008C212.379,155.008 212.488,158.497 214.264,161.428C214.264,161.428 224.848,162.423 225.711,160.871Z" style="fill:white;stroke:rgb(234,179,8);stroke-width:1px;"/>
        <path d="M280.801,155.008C280.801,155.008 290.046,154.374 295.278,151.435C295.278,151.435 301.042,144.547 300.231,140.349C300.231,140.349 309.017,144.554 311.073,152.653C311.073,152.653 305.513,147.863 303.693,149.269C303.693,149.269 312.599,159.171 308.869,162.094C308.869,162.094 309.569,160.168 306.583,159.643C306.583,159.643 304.044,168.085 300.734,169.411C300.734,169.411 305.695,174.239 303.693,183.29C303.693,183.29 293.306,165.355 278.344,179.847C278.344,179.847 215.842,155.405 245.166,198.76C245.166,198.76 217.111,188.769 234.336,170.271C234.336,170.271 244.287,159.615 275.741,174.695C275.741,174.695 281.706,168.851 287.342,168.035C287.342,168.035 290.494,161.933 280.801,155.008Z" style="fill:rgb(234,179,8);stroke:rgb(234,179,8);stroke-width:1px;"/>
        <path d="M293.221,161.433L296.215,158.706C296.215,158.706 298.285,159.903 297.511,161.433C296.738,162.963 294.034,160.542 293.221,161.433Z" style="fill:white;stroke:rgb(234,179,8);stroke-width:1px;"/>
        <path d="M73.683,163.288C73.683,163.288 79.249,123.533 117.091,116.764C117.091,116.764 115.109,122.592 117.872,130.861C117.872,130.861 79.561,141.348 73.683,163.288Z" style="fill:rgb(234,179,8);stroke:rgb(234,179,8);stroke-width:1px;"/>
        <path d="M154.538,148.776C154.538,148.776 161.285,134.315 147.52,110.507C147.52,110.507 163.013,109.202 170.694,136.464L154.538,148.776Z" style="fill:rgb(234,179,8);stroke:rgb(234,179,8);stroke-width:1px;"/>
        <path d="M182.564,234.192C182.564,234.192 156.817,187.001 199.156,174.214C199.156,174.214 183.656,186.615 185.66,193.939C185.66,193.939 189.376,190.607 195.262,190.93C195.262,190.93 180.324,198.274 182.564,234.192Z" style="fill:rgb(234,179,8);stroke:rgb(234,179,8);stroke-width:1px;"/>
        <path d="M330.514,219.919C319.439,228.309 332.76,260.15 343.345,277.11C350.704,288.903 346.323,310.096 347.762,311.396C347.762,311.396 364.042,294.22 356.046,270.699C356.046,270.699 330.325,224.049 330.514,219.919Z" style="fill:rgb(234,179,8);stroke:rgb(234,179,8);stroke-width:1px;"/>
        <path d="M316.172,380.856C316.172,380.856 338.745,369.435 329.666,343.464C308.99,284.32 294.958,274.719 319.931,237.052C319.931,237.052 316.964,256.67 326.344,279.695C341.312,316.439 356.333,367.961 316.172,380.856Z" style="fill:rgb(234,179,8);stroke:rgb(234,179,8);stroke-width:1px;"/>
        <path d="M87.401,265.657C87.401,265.657 31.309,180.91 113.525,135.533C113.525,135.533 64.336,191.765 87.401,265.657Z" style="fill:rgb(234,179,8);stroke:rgb(234,179,8);stroke-width:1px;"/>
        <path d="M125.404,210.045C117.504,241.429 68.231,270.382 110.601,324.035C110.601,324.035 104.309,301.927 113.525,284.816C105.325,269.948 127.83,222.262 125.404,210.045Z" style="fill:rgb(234,179,8);stroke:rgb(234,179,8);stroke-width:1px;"/>
        <path d="M93.614,250C93.614,250 75.061,172.453 125.588,148.776C125.588,148.776 110.314,121.17 127.995,98.957C127.995,98.957 138.119,92.889 163.395,100.199C163.395,100.199 160.149,85.564 163.018,82.12C163.018,82.12 175.999,93.45 188.312,92.98C188.312,92.98 179.555,77.478 182.427,73.016C183.479,78.268 220.931,87.08 230.661,86.701C230.661,86.701 230.529,73.218 238.436,72.823C237.899,74.197 240.348,78.67 245.7,82.521C257.46,90.983 277.112,102.076 266.609,110.497C266.609,110.497 260.989,97.003 242.315,90.856C242.315,90.856 245.694,104.412 240.436,105.788C240.436,105.788 227.764,89.998 212.676,91.323C212.676,91.323 227.128,111.193 224.268,121.77C224.268,121.77 212.63,99.176 181.146,99.737C181.146,99.737 184.709,110.451 181.676,120.449C181.676,120.449 154.894,101.227 135.567,104.852C135.567,104.852 122.941,140.375 147.52,154.576C147.52,154.576 165.918,144.73 175.319,140.394C175.319,140.394 144.249,180.526 151.747,200.595C151.747,200.595 160.431,176.465 176.436,169.246C160.258,179.233 160.553,213.239 170.694,237.999C182.187,266.06 205.087,285.861 208.332,311.396C208.332,311.396 201.369,296.497 188.13,281.579C173.994,265.653 153.459,249.288 151.29,237.312C151.29,237.312 148.552,238.087 147.52,240.409C147.52,240.409 116.02,193.871 140.484,165.88C140.484,165.88 139.8,162.322 134.834,160.614C134.834,160.614 100.033,193.206 109.601,232.927L93.614,250Z" style="fill:rgb(234,179,8);stroke:rgb(234,179,8);stroke-width:1px;"/>
        <path d="M215.018,319.096C215.018,319.096 207.866,331.994 230.258,353.912C230.258,353.912 220.854,337.162 215.018,319.096Z" style="fill:rgb(234,179,8);stroke:rgb(234,179,8);stroke-width:1px;"/>
        <path d="M234.284,341.247C234.284,341.247 258.76,350.245 279.757,336.504C279.757,336.504 296.782,344.132 264.677,373.882C264.677,373.882 265.936,348.019 262.107,348.354C262.107,348.354 264.687,359.471 259.717,364.12C259.717,364.12 254.448,347.435 252.771,348.371C252.771,348.371 249.41,356.186 252.906,363.636C252.906,363.636 242.957,354.829 245.101,349.167C245.101,349.167 239.452,357.182 251.899,369.209C251.899,369.209 234.783,361.166 234.284,341.247Z" style="fill:rgb(234,179,8);stroke:rgb(234,179,8);stroke-width:1px;"/>
        <path d="M284.267,277.413C284.267,277.413 333.178,316.989 306.805,380.339C306.805,380.339 327.932,407.067 323.181,441.293C323.181,441.293 282.848,385.327 269.597,389.273C269.597,389.273 296.761,374.682 288.31,328.031C288.31,328.031 296.191,336.52 297.273,344.867C297.273,344.867 298.711,296.818 284.267,277.413Z" style="fill:rgb(234,179,8);stroke:rgb(234,179,8);stroke-width:1px;"/>
        <path d="M179.942,281.98C179.942,281.98 143.475,324.878 253.563,404.803C253.563,404.803 196.473,411.362 146.825,402.194C146.825,402.194 102.453,390.597 90.288,359.353C90.288,359.353 79.935,393.354 162.713,416.677C174.409,423.516 319.085,418.14 302.101,465.379C302.101,465.379 331.332,441.197 284.267,402.378C284.267,402.378 166.33,319.377 179.942,281.98Z" style="fill:rgb(234,179,8);stroke:rgb(234,179,8);stroke-width:1px;"/>
        <path d="M89.873,273.966C89.873,273.966 45.966,311.3 147.553,397.864C147.553,397.864 179.944,396.597 200.473,403.253C200.473,403.253 71.513,349.052 89.873,273.966Z" style="fill:rgb(234,179,8);stroke:rgb(234,179,8);stroke-width:1px;"/>
        <path d="M187.875,426.393C187.875,426.393 208.996,425.708 227.878,425.969C227.878,425.969 267.131,427.145 279.695,470.539C279.695,470.539 223.58,426.933 187.875,426.393Z" style="fill:rgb(234,179,8);stroke:rgb(234,179,8);stroke-width:1px;"/>
        <path d="M138.077,242.57C148.851,267.303 119.145,352.01 223.976,389.13C257.876,401.134 165.49,366.302 167.683,311.396C169.828,257.7 136.761,239.55 138.077,242.57Z" style="fill:rgb(234,179,8);stroke:rgb(234,179,8);stroke-width:1px;"/>
        <path d="M328.351,167.677C326.552,171.977 357.353,223.966 346.43,242.252C346.43,242.252 381.774,231.321 350.617,192.11C350.617,192.11 356.677,169.745 336.546,155.109C349.637,111.504 335.892,93.137 292.673,102.49C292.673,102.49 260.84,76.728 268.216,72.823C267.763,72.597 251.433,79.005 273.379,98.144C279.702,103.658 269.665,109.296 272.175,114.656C272.175,114.656 304.668,103.91 317.399,107.064C317.399,107.064 345.769,114.087 324.665,143.261C324.665,143.261 306.013,136.639 312.397,121.559C312.397,121.559 320.258,122.049 323.859,128.35C323.859,128.35 324.703,115.392 316.44,113.088C312.874,112.094 303.938,111.56 298.586,117.432C296.563,122.09 295.379,127.021 300.347,134.644C306.369,143.883 319.243,154.749 329.04,164.581C335.206,170.768 338.961,176.708 342.759,181.068C338.82,179.831 334.145,175.841 328.351,167.677Z" style="fill:rgb(234,179,8);stroke:rgb(234,179,8);stroke-width:1px;"/>
        <path d="M135.379,253.465C135.379,253.465 106.613,340.15 212.676,393.098C212.676,393.098 112.742,378.78 113.175,306.344C113.175,306.344 113.128,270.5 135.379,253.465Z" style="fill:rgb(234,179,8);stroke:rgb(234,179,8);stroke-width:1px;"/>
        <path d="M218.747,231.357C218.747,231.357 204.421,244.848 228.175,272.854C233.692,279.358 247.332,281.178 244.788,298.71C244.788,298.71 197.6,259.778 206.286,246.457C206.286,246.457 212.118,234.804 218.747,231.357Z" style="fill:rgb(234,179,8);stroke:rgb(234,179,8);stroke-width:1px;"/>
        <path d="M198.687,245.23C195.945,243.762 201.77,293.518 225.16,324.975C225.16,324.975 241.838,349.589 272.275,334.633C272.275,334.633 291.784,306.254 287.765,298.71C287.765,298.71 283.092,304.565 276.231,305.477C276.231,305.477 271.741,307.505 270.918,293.054C270.918,293.054 279.134,264.097 275.581,260.598C275.581,260.598 282.147,253.653 281.92,250C281.692,246.347 279.679,244.759 277.726,245.251C277.726,245.251 271.918,245.714 264.422,254.729C264.422,254.729 264.033,259.076 266.883,265.034C266.883,265.034 270.263,277.411 260.091,295.343C260.091,295.343 259.241,298.683 263.399,302.415C263.399,302.415 268.6,307.317 268.26,308.363C268.26,308.363 265.481,309.744 265.13,308.066C264.779,306.388 262.936,306.833 261.018,313.618C261.018,313.618 259.108,309.278 258.38,309.645C258.38,309.645 257.847,310.181 255.756,312.452C255.756,312.452 250.685,308.75 250,309.804C250,309.804 250.081,310.034 250,312.983C250,312.983 242.837,317.127 233.15,298.71C233.15,298.71 228.305,301.112 228.602,306.287C221.751,294.675 211.543,273.662 198.687,245.23Z" style="fill:rgb(234,179,8);stroke:rgb(234,179,8);stroke-width:1px;"/>
    </g>
</svg>
