<?xml version="1.0" encoding="UTF-8" standalone="no"?>
<!DOCTYPE svg PUBLIC "-//W3C//DTD SVG 1.1//EN" "http://www.w3.org/Graphics/SVG/1.1/DTD/svg11.dtd">
<svg width="100%" height="100%" viewBox="0 0 100 100" version="1.1" xmlns="http://www.w3.org/2000/svg" xmlns:xlink="http://www.w3.org/1999/xlink" xml:space="preserve" xmlns:serif="http://www.serif.com/" style="fill-rule:evenodd;clip-rule:evenodd;stroke-linejoin:round;stroke-miterlimit:2;">
    <g transform="matrix(0.0553808,0,0,0.0553808,17.1592,22.3096)">
        <g id="Layer1">
            <g id="kiko-like">
                <path d="M1086,511C1086,539.667 1082.33,569.333 1075,600L1025,800C1016.33,834.667 997.667,863.333 969,886C940.333,908.667 908,920 872,920L475,920L475,935C475,947.667 470.5,958.667 461.5,968C452.5,977.333 441.333,982 428,982L147,982C134.333,982 123.333,977.333 114,968C104.667,958.667 100,947.667 100,935L100,405C100,391.667 104.667,380.5 114,371.5C123.333,362.5 134.333,358 147,358L428,358C438,358 447,360.833 455,366.5C463,372.167 468.667,379.667 472,389C496.667,366.333 515.5,339.833 528.5,309.5C541.5,279.167 548,247.333 548,214C548,198.667 547.333,187.333 546,180L544,168C541.333,153.333 540,142.667 540,136C540,116 544,96.667 552,78C562.667,59.333 577.333,44.667 596,34C614.667,23.333 634.667,18 656,18C666.667,18 678,19.667 690,23C717.333,31.667 741.333,46 762,66C782.667,86 797.333,109.333 806,136C819.333,177.333 824.333,220 821,264L919,264C950.333,264 978.667,273.167 1004,291.5C1029.33,309.833 1047,333.667 1057,363L1067,395C1079.67,432.333 1086,471 1086,511ZM194,451L194,888L381,888L381,451L194,451ZM992,511C992,479 987.333,450 978,424L968,393C964.667,382.333 958.5,373.833 949.5,367.5C940.5,361.167 930.333,358 919,358L771,358C759,358 748.167,353.833 738.5,345.5C728.833,337.167 724,325.667 724,311L724,308L725,303C727,287 728,270.333 728,253C728,223 724.667,194.667 718,168C710,144 693.667,126 669,114C663.667,112.667 659.333,112 656,112C646,112 639.333,114.667 636,120C635.333,123.333 635,129 635,137C635,145.667 635.667,152 637,156L639,171C640.333,188.333 641,201.667 641,211C641,269.667 627.667,325.167 601,377.5C574.333,429.833 532.333,470 475,498L475,826L872,826C886.667,826 899.833,821.5 911.5,812.5C923.167,803.5 930.667,791.667 934,777L984,578C989.333,558.667 992,536.333 992,511Z" style="fill:rgb(234,179,8);fill-rule:nonzero;"/>
            </g>
        </g>
    </g>
</svg>
